# xmcd
#
# Track frame offsets:
#	150
#	11588
#	36001
#	48503
#	61683
#	75032
#	86683
#	100277
#	119478
#	139028
#	151813
#	166306
#	178365
#	190154
#	203532
#	214224
#
# Disc length: 3026 seconds
#
# Revision: 1
# Processed by: cddbd v1.5.2PL0 Copyright (c) Steve Scherf et al.
# Submitted via: audiograbber 1.83.01
#
DISCID=cb0bd010
DTITLE=Various Artist - Legends Of The Blues
DYEAR=2008
DGENRE=Blues
TTITLE0=John Lee Hooker - Boom Boom
TTITLE1=B.B. King - The Thrill Is Gone
TTITLE2=Albert King - Born Under A Bad Sign
TTITLE3=Muddy Waters - Mannish Boy
TTITLE4=Robert Johnson - Sweet Home Chicago
TTITLE5=Etta James - I'd Rather Go Blind
TTITLE6=T-Bone Walker - Stormy Monday Blues
TTITLE7=Willie Dixon - You Shook Me
TTITLE8=Son House  - Death Letter Blues
TTITLE9=Bessie Smith - Me and My Gin
TTITLE10=Lightnin' Hopkins - Mojo Hand
TTITLE11=Little Walter - My Babe
TTITLE12=Freddie King - I'm Tore Down
TTITLE13=Buddy Guy - Stone Crazy
TTITLE14=Junior Wells - Messin' With The Kid
TTITLE15=Howlin' Wolf - I Asked For Water(She Gave Me Gasoline)
EXTD=
EXTT0=
EXTT1=
EXTT2=
EXTT3=
EXTT4=
EXTT5=
EXTT6=
EXTT7=
EXTT8=
EXTT9=
EXTT10=
EXTT11=
EXTT12=
EXTT13=
EXTT14=
EXTT15=
PLAYORDER=
